inDegrees=no
num_controls=7
num_derivatives=13
num_iterations=132
num_multipliers=7
num_parameters=0
num_slacks=7
num_states=26
objective=5.935523
objective_accelerations=0.733165
objective_balance=0.129203
objective_effort=0.479674
objective_height=4.516145
objective_ligament=0.077336
solver_duration=1515.660994
status=Solve_Succeeded
success=true
DataType=double
version=3
OpenSimVersion=4.4-2022-07-23-0e9fedc
endheader
time	/jointset/ground_pelvis/pelvis_tilt/value	/jointset/ground_pelvis/pelvis_tx/value	/jointset/ground_pelvis/pelvis_ty/value	/jointset/hip_l/hip_flexion_l/value	/jointset/hip_l/hip_adduction_l/value	/jointset/hip_l/hip_rotation_l/value	/jointset/back/lumbar_extension/value	/jointset/patellofemoral_l/patellar_flexion_l/value	/jointset/knee_l/knee_flexion_l/value	/jointset/knee_l/knee_adduction_l/value	/jointset/knee_l/knee_rotation_l/value	/jointset/ankle_l/ankle_angle_l/value	/jointset/subtalar_l/subtalar_angle_l/value	/jointset/ground_pelvis/pelvis_tilt/speed	/jointset/ground_pelvis/pelvis_tx/speed	/jointset/ground_pelvis/pelvis_ty/speed	/jointset/hip_l/hip_flexion_l/speed	/jointset/hip_l/hip_adduction_l/speed	/jointset/hip_l/hip_rotation_l/speed	/jointset/back/lumbar_extension/speed	/jointset/patellofemoral_l/patellar_flexion_l/speed	/jointset/knee_l/knee_flexion_l/speed	/jointset/knee_l/knee_adduction_l/speed	/jointset/knee_l/knee_rotation_l/speed	/jointset/ankle_l/ankle_angle_l/speed	/jointset/subtalar_l/subtalar_angle_l/speed	/forceset/tau_hip_flexion_l	/forceset/tau_hip_adduction_l	/forceset/tau_hip_rotation_l	/forceset/tau_knee_flexion_l	/forceset/tau_ankle_angle_l	/forceset/tau_subtalar_angle_l	/forceset/tau_lumbar_extension	lambda_cid13_p0	lambda_cid13_p1	lambda_cid13_p2	lambda_cid13_p3	lambda_cid13_p4	lambda_cid13_p5	lambda_cid14_p0	/jointset/ground_pelvis/pelvis_tilt/accel	/jointset/ground_pelvis/pelvis_tx/accel	/jointset/ground_pelvis/pelvis_ty/accel	/jointset/hip_l/hip_flexion_l/accel	/jointset/hip_l/hip_adduction_l/accel	/jointset/hip_l/hip_rotation_l/accel	/jointset/back/lumbar_extension/accel	/jointset/patellofemoral_l/patellar_flexion_l/accel	/jointset/knee_l/knee_flexion_l/accel	/jointset/knee_l/knee_adduction_l/accel	/jointset/knee_l/knee_rotation_l/accel	/jointset/ankle_l/ankle_angle_l/accel	/jointset/subtalar_l/subtalar_angle_l/accel	gamma_cid13_p0	gamma_cid13_p1	gamma_cid13_p2	gamma_cid13_p3	gamma_cid13_p4	gamma_cid13_p5	gamma_cid14_p0
0.5	-0.48466696709024	-0.07435011907002233	0.7498160986048535	1.338315100531272	-0.30933039207443	-0.02956622027939466	-0.3376409864499013	0.7371853463990312	0.7371853463990088	-0.1714217200151922	0.1743212105178734	0.05305978614668629	-0.04599989349969841	-0.8416751274997443	-0.263308033885068	-0.5487566319072886	2.576015765731456	-0.02022148153492708	0.667375279149908	-0.6190825520883724	1.90446121676104	1.904461216760464	-0.01045564385440352	0.0003684222731612319	0.274775991552572	0.01151407404231515	-0.2677331296522777	0.02354669588278336	-0.01995416226114988	-0.1906337823296929	0.1193019760214077	0.04299453500910873	0.2343525538708002	-0.1313293196790148	-21.15511087232074	5.832258312204921	-4.734622990191422	-606.321899421991	-54.87035137273044	-25.4751670438447	0.7187844171395293	0.7631830085364864	-0.337662367045673	-1.698469917496702	0.6655268599750055	-0.3293694755829876	1.945730268460764	-1.219637344102324	-1.219637344102416	0.01548577055055451	-0.003725126384151782	-0.1953523186066832	0.6486975517771453	-3.57566996140771e-07	-9.288761413336835e-07	1.757171183482078e-06	1.146885187463682e-07	-4.561352350606028e-07	9.375973847973272e-08	-3.861252654088349e-07
0.51	-0.4930459190067785	-0.07694474060724371	0.7443128641956044	1.363985646998784	-0.309500981875334	-0.02290904697869924	-0.343734666827401	0.7561658408194746	0.756165840819533	-0.1715286775441542	0.1743253270754064	0.05579668499699722	-0.04585413566827869	-0.834004417253878	-0.2555956823710466	-0.5517735552937414	2.557749454036348	-0.0139150284761074	0.6639749871481732	-0.599586102620533	1.891374303139315	1.891374303138834	-0.01092979167309383	0.000456505618030221	0.2725463532428199	0.01761785254418263	-0.276901788563982	0.0241229663507736	-0.01998275274220942	-0.1917081539971259	0.1185236801077077	0.04335412101169573	0.2413245645898989	-0.6703267146291676	-21.1078350393098	5.700137127078957	-4.618527288671606	-611.5997840518193	-54.3585972510181	-24.34171340477766	0.8077973997304979	0.7783701391672421	-0.2662887797689784	-1.942375180294486	0.6103066556488845	-0.3583555274909827	1.961715403695368	-1.392649039108381	-1.39264903909408	-0.07804229447494944	0.01494809557935718	-0.2453875379051489	0.5882208188232749	-3.234661912606845e-07	-8.650110134857445e-07	1.619278190670965e-06	9.623458133117845e-08	-4.088183385292828e-07	1.245240815055038e-07	-3.589561489539593e-07
0.52	-0.5013448472065566	-0.07946161684605794	0.7387829442614264	1.389463197672475	-0.3096090867202856	-0.01628847589095738	-0.349631360086651	0.7750075799701154	0.7750075799702022	-0.1716402119985976	0.1743302990725285	0.05850956387406965	-0.04564793948795355	-0.8256703841512588	-0.2477589742036396	-0.5540937368930492	2.537416606950184	-0.007724490344801769	0.6600548365455645	-0.5796851284427444	1.876710162801565	1.876710162801179	-0.01137102894760301	0.0005395101891792963	0.2699719969032486	0.02360174382332883	-0.2860704474751419	0.02469923681898924	-0.02001134322378301	-0.1927825256644597	0.1177453841940275	0.04371370701452119	0.2482965753095176	-1.21279762278825	-21.06358254973116	5.572647081802217	-4.520089813789109	-616.9533956310306	-53.92684256501655	-23.20632786022969	0.8514489884896854	0.7880543392140322	-0.1983140096165782	-2.111776995707952	0.642343874472076	-0.4333411957577493	2.026635210450448	-1.53508268730734	-1.535082687307473	0.02206787938668026	-0.004740881128068002	-0.2642959245699559	0.6247201072329703	-2.984443328624364e-07	-7.891584142592887e-07	1.525832547545716e-06	8.623295870659132e-08	-3.695293780381919e-07	1.552428094066756e-07	-3.370433505328228e-07
0.53	-0.5095572612656645	-0.08189959920103435	0.7332333027721364	1.414727471230541	-0.3096557587328832	-0.009709668952616241	-0.3553271297220009	0.7936950829552222	0.7936950829553727	-0.171755656015147	0.1743360313652367	0.06119510969197387	-0.04538237811988245	-0.8167086293668435	-0.239825419033628	-0.5557164562259933	2.515110856219466	-0.001634869817460278	0.655624730172565	-0.5594202085219989	1.860540011937082	1.860540011937069	-0.0117128860499788	0.0006087795564675706	0.2670832723220547	0.02948438231775639	-0.2950250163254638	0.02502515174511306	-0.0200200118922709	-0.1939299911124855	0.1170002704379006	0.04392872471203214	0.2550334011925547	-1.744263254975832	-20.95890052938578	5.436012556974659	-4.366489827846639	-622.2089899352894	-53.42302466174178	-22.07014766278645	0.9340708460445768	0.7978339665121605	-0.1266049626265978	-2.339106831938482	0.5884157001791502	-0.4604122817677437	2.033708897748111	-1.69547952172392	-1.695479521668027	-0.06165572318607021	0.01270785043614702	-0.3092458380574727	0.5660598584642449	-2.735049148899727e-07	-7.12816669515725e-07	1.430951991441308e-06	7.691638550522838e-08	-3.319061036405398e-07	1.814515462226822e-07	-3.145215216522964e-07
0.54	-0.5176769513523817	-0.08425788043218682	0.7276709632760189	1.439758860737364	-0.3096423056285448	-0.00317767646267086	-0.3608187924551458	0.8122133847845391	0.8122133847846882	-0.1718743872463435	0.1743424457525907	0.06385015124144162	-0.04505878553928334	-0.807125589677397	-0.2318187494388513	-0.556633338258531	2.490839796681368	0.004300533042391298	0.6506919468517133	-0.5388637480068332	1.842869931644399	1.842869931644759	-0.01202847187778502	0.0006759291149130943	0.2638711432143345	0.03520798632885688	-0.3039795851751685	0.02535106667146198	-0.02002868056129311	-0.1950774565604275	0.116255156681777	0.04414374240978098	0.2617702270762011	-2.280946219888478	-20.85659059295036	5.30351009384674	-4.221995452798217	-627.5624372824353	-52.99402690430916	-20.934735624304	0.9757059694955893	0.8026772241674205	-0.05714654953526283	-2.504838757184183	0.6115003409739826	-0.5338765853281872	2.084943329334402	-1.835068572947361	-1.835068572947379	0.02732213430051394	-0.005164842896561789	-0.3289768298746731	0.5929132105676354	-2.486567076013558e-07	-6.359337424979144e-07	1.334483872040809e-06	6.835773932530498e-08	-2.961257159845647e-07	2.026705056678676e-07	-2.913258718379767e-07
0.55	-0.525697874318158	-0.08653581563097636	0.7221029721062393	1.464538097592186	-0.3095701272673869	0.0033024891367786	-0.3661035367804534	0.8305477480353615	0.8305477480354959	-0.1719957520060431	0.174349441071315	0.06647159440193724	-0.04467858925085114	-0.7969640311429257	-0.2237636931539684	-0.5568463878465312	2.464697994285757	0.01010596403725667	0.6452605964341689	-0.5180556976353284	1.82376514169274	1.823765141692751	-0.01223725842451625	0.0007244113908168361	0.2603688272289462	0.0408009998560257	-0.3126222206126065	0.02548854938553032	-0.02001980186387268	-0.1963133653291649	0.1156336861205014	0.0441562638311526	0.2681985623438222	-2.773220707550991	-20.67420695763714	5.158349130435576	-4.058179485975789	-632.7323919330688	-52.45202737416876	-19.80185677093711	1.050594567145497	0.8076221441764955	0.01433669256598642	-2.715326269624373	0.5605819575253479	-0.5600990071714684	2.083148803052623	-1.98376499554661	-1.983764995598928	-0.04395872294576039	0.009762204128478813	-0.3681562100526367	0.5378988615889982	-2.24752241727247e-07	-5.635041796349285e-07	1.238078753728496e-06	6.068765119069675e-08	-2.62991029457237e-07	2.193698148103822e-07	-2.684094125958205e-07
0.5600000000000001	-0.5336143389442228	-0.0887330598042112	0.7165363946117801	1.489046621365389	-0.3094407911005247	0.009725874284683895	-0.3711793180196197	0.8486839472288017	0.8486839472288508	-0.1721190005659332	0.1743569027011013	0.06905655495714992	-0.04424338213958742	-0.7862339217395907	-0.2156805443279153	-0.5563506031944498	2.436697180335174	0.015732094183382	0.6393358565284779	-0.4970711307840956	1.803237120170227	1.80323712016989	-0.01240523192266155	0.0007691913185045888	0.2565746221562967	0.04621015089510259	-0.321264856049391	0.02562603209980811	-0.02001092316670798	-0.1975492740978732	0.1150122155592078	0.0441687852527426	0.2746268976121071	-3.272015242229653	-20.49349536240198	5.016669429447446	-3.897516325464054	-638.0166378988746	-51.97840837334854	-18.67361829621667	1.0894161432681	0.8082957324017604	0.08462029848111528	-2.876641068178498	0.5756401712258987	-0.6325544829574907	2.120246625279979	-2.11971488711832	-2.119714887118332	0.03548474401763619	-0.00590531253971587	-0.3873546473263985	0.5561407129493239	-2.019802655505476e-07	-4.964186537577322e-07	1.141749236722006e-06	5.408383271046671e-08	-2.33031184284286e-07	2.306455435896919e-07	-2.458279820402604e-07
